{"title":"No Offence S01E08 XviD-AFG","uid":12055257,"size":189543792,"categoryP":"video","categoryS":"tv_shows","magnet":"?xt=urn:btih:c720c478f55b0918d1905f550b4002846d71cad4&amp;dn=No+Offence+S01E08+XviD-AFG&amp;tr=udp%3A%2F%2Ftracker.openbittorrent.com%3A80&amp;tr=udp%3A%2F%2Fopen.demonii.com%3A1337&amp;tr=udp%3A%2F%2Ftracker.coppersurfer.tk%3A6969&amp;tr=udp%3A%2F%2Fexodus.desync.com%3A6969","seeders":0,"leechers":0,"uploader":"Mulva1989","files":2,"time":1435103696,"description":"No Offence S01E08 XviD-AFG\n\nDinah clashes with Deering, setting off an irreversible chain of events which brings them into conflict with their professional duty. Meanwhile, Jonah's job is also on the line when an attempt to save the lives of a mother and baby goes disastrously wrong.\n\nScreens @ &lt;a href=&quot;\nhttps://yuq.me/users/50/321/GzBmlsE4Zh.jpg&quot; rel=&quot;nofollow&quot; target=&quot;_NEW&quot;&gt;\nhttps://yuq.me/users/50/321/GzBmlsE4Zh.jpg&lt;/a&gt; &lt;a href=&quot;\nhttps://yuq.me/users/50/321/9cSeBDCGyA.jpg&quot; rel=&quot;nofollow&quot; target=&quot;_NEW&quot;&gt;\nhttps://yuq.me/users/50/321/9cSeBDCGyA.jpg&lt;/a&gt;\n\nFormat : AVI\nFormat/Info : Audio Video Interleave\nFile size : 181 MiB\nDuration : 46mn 30s\nOverall bit rate : 543 Kbps\nWriting application : Lavf56.36.100\n\nVideo\nID : 0\nFormat : xvid\nCodec ID : xvid\nDuration : 46mn 30s\nBit rate : 402 Kbps\nWidth : 640 pixels\nHeight : 360 pixels\nDisplay aspect ratio : 16:9\nFrame rate : 25.000 fps\nBits/(Pixel*Frame) : 0.070\nStream size : 134 MiB (74%)\n\nAudio\nID : 1\nFormat : MPEG Audio\nFormat version : Version 1\nFormat profile : Layer 3\nMode : Joint stereo\nCodec ID : 55\nCodec ID/Hint : MP3\nDuration : 46mn 30s\nBit rate mode : Constant\nBit rate : 128 Kbps\nChannel(s) : 2 channels\nSampling rate : 48.0 KHz\nCompression mode : Lossy\nStream size : 42.6 MiB (24%)\nAlignment : Aligned on interleaves\nInterleave, duration : 24 ms (0.60 video frame)\nInterleave, preload duratio : 24 ms","torrent":{"xt":"urn:btih:c720c478f55b0918d1905f550b4002846d71cad4","amp;dn":"No+Offence+S01E08+XviD-AFG","amp;tr":["udp%3A%2F%2Ftracker.openbittorrent.com%3A80","udp%3A%2F%2Fopen.demonii.com%3A1337","udp%3A%2F%2Ftracker.coppersurfer.tk%3A6969","udp%3A%2F%2Fexodus.desync.com%3A6969"],"infoHash":"c720c478f55b0918d1905f550b4002846d71cad4","infoHashBuffer":{"type":"Buffer","data":[199,32,196,120,245,91,9,24,209,144,95,85,11,64,2,132,109,113,202,212]},"announce":[],"urlList":[]}}